<svg xmlns="http://www.w3.org/2000/svg" viewBox="0 0 706 600" width="706" height="600">
  <g transform="scale(0.333333)">
   <g transform="translate(0,1800) scale(1,-1)" fill="#986549">
    <path d="M1199 1699 c-4 0 -11 -1 -17 -2 -6 -1 -13 -2 -15 -3 -3 -1 -8 -2 -12
-3 -4 -1 -9 -2 -10 -3 -2 0 -7 -2 -12 -3 -5 -1 -11 -3 -14 -4 -3 -1 -9 -1 -30
-2 -30 -1 -37 -1 -45 -4 -4 0 -12 -1 -19 -2 -7 0 -17 -2 -21 -3 -5 -1 -13 -2
-18 -3 -6 -1 -13 -2 -15 -3 -2 -1 -8 -2 -11 -3 -4 -1 -9 -2 -11 -3 -2 -1 -7
-3 -11 -3 -5 -1 -9 -3 -10 -3 -2 -1 -6 -3 -10 -3 -4 -1 -8 -3 -9 -3 -1 -1 -4
-2 -6 -3 -3 -1 -7 -2 -9 -4 -3 -1 -6 -2 -8 -2 -2 -1 -5 -2 -7 -3 -2 -1 -6 -3
-8 -4 -3 0 -5 -1 -6 -2 0 -1 -5 -4 -11 -7 -15 -7 -22 -11 -27 -15 -3 -2 -6 -4
-9 -5 -2 -1 -4 -2 -4 -3 -1 0 -5 -3 -9 -6 -14 -10 -15 -11 -18 -13 -1 -1 -6
-5 -10 -9 -19 -16 -47 -46 -58 -62 -2 -2 -5 -6 -6 -7 -2 -2 -3 -5 -4 -6 -1 -3
-3 -5 -9 -12 -2 -2 -3 -5 -3 -6 0 -1 -1 -3 -2 -5 -2 -1 -3 -4 -4 -6 0 -2 -2
-4 -3 -6 -1 -1 -2 -4 -3 -6 -1 -2 -2 -5 -3 -6 -1 -1 -2 -4 -3 -5 0 -2 -1 -5
-2 -7 -2 -3 -3 -7 -4 -9 -1 -3 -2 -6 -3 -8 -1 -1 -2 -5 -3 -8 -1 -3 -2 -7 -3
-8 -1 -2 -2 -6 -3 -9 -1 -3 -2 -7 -3 -10 -1 -2 -3 -8 -3 -12 -1 -5 -3 -11 -4
-13 -1 -3 -2 -8 -3 -13 0 -5 -1 -13 -2 -18 -1 -7 -2 -17 -3 -35 -2 -37 0 -69
4 -90 1 -3 1 -10 2 -16 0 -6 2 -12 3 -15 1 -2 2 -8 3 -12 1 -4 2 -9 3 -12 1
-2 2 -8 3 -11 1 -4 2 -9 3 -10 1 -2 2 -6 3 -9 1 -4 2 -8 3 -9 1 -1 2 -5 3 -7
1 -3 2 -7 3 -8 1 -2 2 -6 3 -8 1 -3 2 -6 3 -8 1 -1 2 -3 3 -6 1 -2 2 -4 4 -4
1 0 2 0 2 1 0 0 1 1 2 2 2 0 4 2 5 4 1 4 2 4 12 15 7 8 11 12 14 17 2 3 2 4 1
6 -1 2 -2 6 -3 10 -1 3 -2 7 -3 9 -1 2 -3 6 -3 9 -1 3 -2 7 -3 9 -1 2 -3 7 -4
12 0 5 -2 10 -2 11 -1 1 -2 6 -3 11 -1 5 -2 14 -4 20 -2 10 -2 14 -3 45 0 40
1 68 4 78 1 4 3 11 3 17 1 6 2 12 3 13 1 1 2 6 3 9 1 4 2 9 3 10 1 2 2 6 3 9
1 3 2 8 4 10 1 3 2 6 2 7 0 1 1 4 3 7 2 3 4 9 7 14 2 4 4 8 4 9 1 1 2 3 3 6 1
2 3 5 5 7 1 1 2 4 3 5 0 1 2 4 3 6 2 2 3 4 3 4 0 1 1 3 3 5 5 6 7 9 9 13 1 2
4 5 6 8 2 2 5 5 5 6 2 3 26 27 35 35 12 10 19 16 26 20 4 3 8 6 8 6 0 1 2 2 5
4 3 1 5 2 5 3 1 1 2 2 14 8 3 1 7 3 9 5 1 1 4 2 5 2 1 1 4 2 7 3 2 2 5 3 7 3
1 1 4 2 5 3 2 1 5 3 7 4 3 0 5 2 7 2 1 1 4 3 7 3 3 1 6 3 8 4 1 0 5 2 9 3 3 0
8 2 10 3 2 1 6 2 8 2 2 1 8 2 12 4 4 1 11 2 16 3 4 1 11 2 14 3 3 1 10 2 15 3
4 0 12 2 17 3 5 1 16 2 28 3 29 2 46 3 47 3 1 1 6 2 12 3 7 1 12 2 14 3 3 2 6
3 9 3 2 1 5 2 7 3 2 1 7 2 11 3 5 1 9 3 10 3 2 1 6 2 11 3 4 1 10 2 14 3 5 2
7 3 35 3 27 0 29 -1 35 -3 3 -1 10 -2 15 -3 5 -1 11 -2 13 -3 2 0 8 -2 13 -2
5 -1 13 -3 17 -4 3 -2 9 -3 11 -3 3 -1 7 -2 8 -3 2 -1 7 -2 11 -3 4 -1 10 -2
12 -4 3 -1 6 -2 7 -2 1 0 3 -1 5 -2 1 -2 4 -4 6 -5 10 -5 11 -6 32 -24 15 -14
18 -16 32 -24 5 -3 9 -5 19 -9 2 -1 7 -4 11 -5 3 -2 8 -4 10 -5 2 0 5 -2 6 -2
1 -1 4 -2 6 -3 2 -1 5 -2 6 -3 1 0 4 -2 7 -3 3 -2 6 -3 7 -4 1 -1 4 -2 6 -3 8
-4 13 -6 15 -9 2 -1 3 -2 4 -2 1 0 12 -8 16 -12 2 -2 4 -5 5 -7 2 -5 0 -12 -3
-18 -9 -13 -11 -16 -14 -19 -6 -6 -12 -10 -19 -11 -3 -1 -8 -2 -11 -3 -12 -4
-63 -4 -97 0 -7 1 -22 2 -34 3 -12 1 -29 2 -39 3 -9 1 -21 3 -26 3 -5 1 -13 2
-17 3 -5 2 -12 3 -16 4 -4 0 -8 2 -9 2 -5 3 -13 4 -13 0 0 -1 3 -3 6 -3 1 0 3
-2 5 -3 2 -2 5 -4 6 -4 0 0 3 -1 6 -2 5 -3 13 -6 26 -10 5 -1 10 -3 11 -3 0
-1 4 -2 9 -2 4 -1 9 -3 11 -4 2 0 9 -2 16 -3 7 0 14 -1 15 -2 1 -1 13 -2 26
-3 12 -2 24 -3 26 -4 7 -2 25 -3 48 -3 17 0 24 0 25 -1 2 -2 0 -3 -6 -4 -3 0
-7 -2 -9 -3 -2 -1 -6 -2 -14 -3 -6 -1 -14 -3 -17 -3 -4 -1 -18 -3 -32 -4 -14
0 -29 -2 -32 -3 -4 0 -17 -1 -29 -2 -12 -1 -28 -1 -36 -2 -26 -2 -74 1 -91 5
-5 1 -12 2 -16 3 -5 1 -10 2 -11 2 -1 1 -6 3 -9 4 -4 0 -8 2 -8 3 -1 0 -4 2
-7 3 -2 0 -6 2 -7 3 -1 1 -4 2 -6 3 -4 2 -8 5 -13 9 -2 2 -4 3 -4 3 -2 0 -20
17 -22 20 0 2 -3 6 -6 10 -2 4 -5 9 -6 11 0 3 -2 6 -2 7 -2 2 -5 20 -5 29 0 4
1 10 1 14 2 12 -1 16 -7 8 -4 -6 -10 -18 -12 -23 -1 -3 -2 -7 -3 -9 -1 -2 -2
-5 -2 -6 0 -1 -1 -4 -2 -7 -2 -7 -5 -9 -12 -7 -6 1 -29 3 -49 3 -24 0 -42 -2
-50 -4 -4 -2 -10 -3 -12 -3 -3 -1 -8 -2 -11 -4 -3 -1 -7 -2 -9 -3 -2 0 -6 -2
-9 -3 -3 -2 -6 -3 -7 -3 -1 0 -3 -1 -4 -2 -2 -1 -6 -4 -10 -6 -10 -5 -17 -10
-26 -17 -4 -3 -8 -6 -8 -6 -2 0 -22 -21 -27 -29 -4 -4 -7 -9 -9 -11 -1 -1 -3
-5 -4 -7 -2 -3 -5 -8 -6 -11 -2 -4 -5 -8 -5 -10 -2 -3 -3 -6 -6 -10 -1 -3 -5
-14 -7 -22 -1 -4 -3 -8 -4 -10 0 -2 -2 -8 -3 -15 -1 -6 -3 -13 -3 -15 -1 -2
-1 -15 -2 -31 0 -28 1 -41 3 -53 1 -3 2 -8 2 -11 1 -4 2 -9 3 -11 1 -3 3 -7 3
-10 1 -3 3 -9 5 -13 3 -9 3 -13 -2 -15 -6 -4 -14 -9 -14 -10 0 0 -1 -1 -3 -2
-2 -1 -4 -3 -5 -4 -1 -1 -4 -3 -6 -5 -9 -7 -44 -42 -49 -48 -2 -2 -6 -7 -9
-10 -3 -3 -6 -7 -8 -9 -1 -2 -2 -4 -3 -4 -1 0 -2 -2 -7 -10 -2 -2 -4 -5 -5 -7
-2 -2 -3 -4 -3 -4 0 -1 -1 -3 -2 -4 -1 -1 -3 -3 -4 -4 -1 -2 -2 -4 -3 -5 -1
-1 -2 -3 -3 -5 0 -1 -1 -3 -2 -4 -2 -2 -4 -6 -9 -15 -1 -3 -3 -5 -4 -6 -1 -2
-2 -5 -3 -7 -1 -2 -2 -5 -3 -7 -1 -1 -2 -4 -3 -6 -1 -2 -2 -5 -3 -6 -1 -1 -2
-4 -3 -6 -1 -3 -2 -6 -3 -7 -2 -3 -6 -13 -9 -23 -1 -3 -3 -8 -4 -10 -1 -2 -2
-6 -2 -8 -1 -3 -2 -8 -3 -11 -1 -3 -2 -8 -3 -12 -1 -3 -2 -9 -3 -12 -1 -3 -3
-10 -4 -16 0 -5 -2 -11 -2 -14 -2 -4 -3 -11 -4 -31 -1 -9 0 -10 20 -15 3 -1 9
-3 13 -4 9 -4 10 -3 11 7 1 4 2 10 2 13 1 2 3 11 4 19 0 8 2 17 2 19 1 2 3 8
3 14 1 6 3 12 4 13 0 2 2 6 2 10 1 3 3 7 4 9 1 2 2 6 3 9 1 3 2 7 3 8 1 2 2 5
3 7 0 2 2 6 3 9 2 3 3 6 3 7 0 1 1 3 2 5 2 1 3 4 4 7 1 2 3 7 5 11 2 4 5 10 6
12 2 3 4 6 5 7 1 2 2 4 2 4 0 1 1 3 3 5 1 2 3 5 5 7 8 14 12 20 17 25 2 2 5 5
5 6 2 3 20 24 24 28 3 2 5 4 6 5 3 4 25 24 31 29 3 2 7 5 20 15 6 6 7 5 20 -8
13 -12 30 -27 37 -31 4 -2 9 -5 12 -8 2 -1 8 -4 13 -6 13 -6 13 -5 13 -10 0
-3 -1 -4 -3 -5 -3 -1 -8 -4 -15 -9 -3 -1 -6 -3 -8 -4 -2 -1 -3 -2 -3 -2 0 -1
-8 -7 -13 -10 -3 -2 -10 -8 -19 -15 -3 -4 -18 -18 -21 -22 -7 -8 -16 -19 -16
-20 0 -1 -2 -4 -5 -7 -3 -3 -6 -7 -7 -10 -1 -2 -4 -6 -6 -10 -2 -4 -5 -8 -5
-10 -1 -2 -3 -4 -4 -6 -1 -1 -2 -4 -3 -6 -1 -2 -2 -4 -3 -5 0 -1 -2 -4 -3 -7
-1 -4 -2 -7 -3 -7 0 -1 -2 -4 -2 -7 -1 -3 -3 -7 -4 -8 -1 -2 -2 -6 -3 -9 -1
-4 -2 -9 -3 -11 -1 -3 -2 -9 -3 -14 -1 -5 -2 -11 -3 -14 -3 -9 -6 -47 -5 -66
2 -25 3 -39 5 -45 2 -7 2 -9 1 -11 -1 -2 -7 0 -11 4 -5 5 -16 12 -21 15 -2 1
-5 3 -7 4 -2 2 -4 3 -4 3 -1 0 -2 1 -4 2 -2 1 -4 3 -6 3 -2 1 -5 2 -6 3 -1 1
-4 2 -6 3 -3 1 -7 3 -10 4 -3 2 -6 3 -7 3 -1 0 -3 1 -5 2 -2 1 -6 3 -10 4 -9
3 -19 6 -25 9 -3 1 -7 2 -9 3 -3 0 -7 1 -10 2 -3 1 -9 3 -12 4 -4 0 -11 2 -15
4 -4 1 -8 2 -9 2 -2 0 -4 1 -7 2 -2 1 -8 3 -12 4 -5 0 -12 2 -15 3 -4 1 -10 3
-14 3 -4 1 -8 3 -9 3 -1 1 -5 2 -7 2 -2 1 -7 2 -10 4 -3 1 -8 2 -12 3 -8 1
-23 6 -30 9 -3 2 -7 3 -8 3 -2 1 -6 2 -8 3 -18 9 -23 11 -24 13 -1 0 -3 1 -5
2 -2 1 -5 2 -6 3 -1 1 -5 4 -8 6 -3 2 -5 4 -6 4 0 0 -2 1 -3 3 -2 2 -5 5 -8 7
-7 7 -14 16 -18 23 -6 8 -8 13 -9 16 -1 2 -3 6 -4 8 -2 2 -3 7 -4 9 -1 3 -2 6
-2 7 -5 8 -7 64 -3 82 3 12 7 23 9 26 1 1 2 4 3 6 0 2 1 4 1 5 1 0 2 3 4 6 6
13 15 27 20 30 2 2 4 5 9 9 2 3 5 6 7 7 2 1 5 4 6 6 4 3 14 10 16 10 0 0 2 1
4 3 2 2 4 3 5 3 1 0 3 1 5 2 1 2 4 3 7 4 2 1 5 2 8 4 2 1 5 2 7 2 2 1 4 2 6 3
1 1 5 2 7 3 3 0 8 2 12 3 3 2 10 3 15 3 5 1 13 2 18 3 12 3 50 3 55 0 3 0 8
-1 13 -1 11 -1 11 0 8 10 -1 4 -3 13 -3 19 -1 6 -3 14 -3 16 -1 3 -2 10 -3 17
-1 7 -1 13 -2 14 0 2 -1 5 -1 7 -1 3 -2 6 -3 7 -3 2 -3 2 -26 2 -24 0 -50 -2
-64 -5 -4 0 -10 -2 -14 -2 -4 -1 -9 -2 -12 -3 -4 -1 -10 -3 -14 -4 -4 -1 -9
-3 -11 -4 -2 -1 -5 -2 -6 -2 -2 0 -5 -1 -8 -2 -2 -2 -7 -4 -9 -5 -3 0 -6 -2
-7 -3 -1 -1 -4 -2 -6 -3 -2 -1 -4 -2 -5 -3 -1 0 -4 -2 -7 -3 -3 0 -5 -2 -6 -2
0 -1 -5 -4 -13 -9 -12 -8 -15 -10 -15 -11 0 0 -1 -1 -2 -2 -1 0 -4 -2 -6 -3
-1 -2 -4 -4 -6 -6 -1 -1 -4 -3 -7 -5 -6 -5 -24 -24 -24 -25 0 -1 -1 -3 -3 -4
-4 -4 -13 -16 -19 -27 -2 -4 -5 -8 -6 -9 -1 -2 -5 -9 -11 -22 -2 -4 -3 -8 -4
-9 0 -2 -1 -6 -3 -8 -1 -3 -2 -6 -3 -9 0 -2 -1 -7 -3 -10 -1 -4 -2 -11 -3 -16
-1 -5 -2 -12 -3 -16 -4 -15 -4 -68 0 -80 1 -2 2 -8 3 -12 0 -4 2 -10 3 -14 1
-3 3 -9 4 -12 0 -4 2 -9 3 -10 1 -2 2 -3 2 -4 0 -1 6 -14 9 -18 0 -1 2 -5 3
-7 2 -3 5 -8 6 -10 2 -2 5 -6 6 -8 3 -6 12 -17 24 -28 9 -9 13 -12 24 -20 3
-2 6 -5 8 -6 1 -1 4 -3 6 -4 2 -1 7 -4 10 -6 2 -2 7 -4 9 -5 3 -2 5 -4 6 -4 1
-1 2 -2 2 -2 2 0 18 -8 21 -10 1 -1 4 -2 6 -2 1 -1 4 -2 7 -3 3 -2 11 -5 23
-8 2 -1 7 -3 10 -4 2 -1 7 -3 11 -4 7 -1 10 -2 17 -4 2 -1 5 -2 7 -2 2 0 6 -1
9 -2 3 -2 7 -3 10 -4 2 0 7 -1 9 -2 2 -1 9 -3 14 -4 5 -1 11 -3 13 -3 2 -1 7
-2 10 -3 4 -1 9 -2 12 -3 2 -1 7 -2 11 -3 3 -1 9 -2 12 -3 2 -1 8 -3 11 -3 4
-1 8 -3 9 -3 2 -1 5 -3 9 -3 3 -1 7 -3 8 -3 1 -1 4 -2 7 -3 4 -1 8 -2 19 -7 2
-1 5 -3 6 -3 1 -1 4 -3 6 -4 10 -4 22 -12 24 -14 0 -1 2 -2 4 -2 1 -1 3 -2 3
-3 0 0 1 -2 3 -2 4 -3 24 -22 26 -27 1 -2 3 -4 3 -4 1 0 5 -6 9 -12 1 -2 3 -5
4 -7 1 -2 2 -4 2 -5 0 -1 1 -4 2 -6 3 -5 7 -20 9 -29 2 -9 2 -34 1 -50 -1 -17
-6 -38 -9 -43 -1 -2 -2 -5 -3 -7 -1 -3 -2 -5 -3 -6 0 -1 -2 -4 -2 -6 -2 -5 -6
-12 -10 -16 -2 -2 -3 -4 -3 -5 0 -1 -5 -7 -16 -18 -15 -14 -15 -15 -18 -16 -2
-1 -3 -2 -3 -2 0 -1 -3 -3 -8 -6 -4 -3 -8 -6 -9 -6 -1 -1 -3 -3 -5 -3 -2 -1
-5 -2 -7 -3 -1 -2 -4 -3 -6 -4 -1 0 -5 -1 -7 -3 -2 -1 -7 -2 -10 -3 -3 0 -6
-1 -7 -2 -2 -1 -6 -3 -10 -3 -3 -1 -9 -2 -11 -3 -14 -5 -88 -6 -101 0 -2 0 -7
2 -12 3 -5 0 -10 2 -11 3 -2 1 -6 2 -8 3 -2 0 -7 2 -10 3 -3 2 -6 3 -7 3 -1 0
-3 1 -5 2 -1 2 -4 3 -6 4 -1 0 -4 2 -6 3 -3 2 -5 3 -6 3 0 0 -1 1 -2 2 -1 1
-3 3 -5 4 -3 1 -5 3 -6 4 -1 1 -3 2 -4 2 0 0 -2 1 -4 3 -1 1 -6 5 -10 8 -4 3
-10 10 -14 14 -4 5 -8 9 -9 10 -1 1 -2 3 -3 4 -1 2 -4 6 -6 10 -3 3 -5 8 -6 9
0 1 -1 4 -2 5 -1 2 -3 5 -4 7 0 2 -2 6 -3 7 -1 2 -2 6 -3 9 -1 3 -2 7 -3 10
-1 2 -2 6 -3 9 -1 12 -10 31 -17 37 -11 9 -20 12 -35 11 -9 -1 -10 -1 -18 -5
-9 -4 -10 -6 -18 -16 -2 -4 -3 -7 -4 -11 -2 -15 0 -46 3 -54 1 -2 3 -7 4 -11
0 -3 2 -8 3 -10 1 -2 2 -6 3 -8 1 -3 2 -7 3 -8 1 -1 2 -5 3 -7 1 -3 3 -5 3 -6
1 0 2 -3 4 -5 1 -3 3 -7 4 -9 1 -2 4 -6 5 -9 2 -2 5 -6 6 -8 1 -1 3 -4 4 -5 1
-1 3 -4 5 -6 3 -4 15 -16 27 -28 6 -6 13 -12 17 -14 1 -1 5 -3 9 -6 3 -3 7 -6
9 -7 2 0 4 -2 4 -3 1 0 3 -1 5 -2 2 -1 5 -3 7 -4 2 -2 4 -3 4 -3 1 0 3 -1 5
-2 2 -2 5 -3 6 -4 2 0 5 -1 6 -2 2 -1 6 -3 9 -4 3 -1 6 -3 7 -3 1 -1 3 -2 5
-3 3 0 6 -1 8 -2 1 -1 6 -3 10 -4 3 0 8 -2 10 -3 2 0 8 -2 13 -3 6 -1 11 -3
13 -3 2 -1 7 -2 13 -3 5 -1 16 -2 24 -3 13 -2 18 -2 46 -2 22 1 32 1 37 2 4 1
10 2 15 3 5 0 11 1 14 2 3 1 9 3 14 4 5 1 11 3 13 3 2 1 6 3 10 3 3 1 7 3 9 4
2 1 4 2 5 2 1 0 4 1 7 2 2 2 9 5 14 7 11 5 17 8 21 12 2 2 4 3 5 3 0 0 2 1 4
2 1 2 4 4 6 5 2 0 5 2 6 4 2 2 12 10 19 15 1 1 7 7 13 13 6 5 11 10 12 10 3 0
3 -3 1 -9 -1 -4 -3 -11 -3 -17 -1 -14 -1 -44 0 -56 1 -14 7 -32 14 -44 0 -1 2
-5 3 -7 2 -3 5 -8 7 -11 2 -3 5 -7 6 -9 5 -7 25 -26 31 -29 1 -1 3 -2 5 -3 1
-1 6 -4 11 -7 6 -3 11 -6 12 -6 1 -1 4 -2 6 -2 1 -1 4 -2 6 -3 2 -2 6 -3 10
-4 4 -1 9 -2 11 -3 3 -1 9 -2 18 -3 7 -1 15 -2 19 -3 4 -1 8 -2 11 -3 3 -1 4
-2 7 -6 2 -3 4 -7 5 -9 2 -6 19 -24 26 -27 1 -1 3 -3 4 -4 1 -1 3 -2 4 -2 0 0
2 -1 3 -2 3 -2 10 -5 21 -8 17 -5 61 -5 79 1 5 1 10 3 12 3 3 1 6 2 8 3 3 2 6
3 8 3 1 1 4 2 5 3 1 1 4 2 6 3 3 1 6 2 8 4 2 1 4 2 5 2 2 0 4 1 5 3 1 1 4 3 6
4 6 3 11 6 13 9 0 1 2 2 2 2 2 0 16 14 24 22 4 5 9 16 10 24 2 10 1 23 -2 29
-2 3 -3 6 -3 8 -1 3 -18 22 -25 26 -2 2 -5 4 -6 5 -5 3 -13 8 -14 8 -1 0 -2 1
-4 3 -2 2 -4 3 -5 3 0 0 -6 3 -13 6 -6 3 -13 6 -14 6 -1 1 -5 2 -7 3 -14 7
-44 13 -61 13 -12 0 -35 -4 -44 -7 -14 -5 -28 -14 -35 -21 -7 -8 -17 -20 -17
-22 0 -1 -1 -3 -2 -4 -1 -1 -3 -4 -4 -7 -1 -2 -3 -5 -5 -6 l-3 -2 -5 3 c-3 1
-5 2 -6 2 -1 0 -2 1 -3 2 -1 1 -3 2 -4 3 -4 2 -15 16 -15 18 0 2 -1 6 -2 10
-2 7 -2 9 -1 13 1 3 2 9 2 13 1 4 3 8 4 9 1 1 2 4 3 5 6 9 7 11 9 11 1 1 3 2
4 4 1 2 2 3 3 3 0 0 4 2 8 5 5 3 10 6 13 6 3 1 6 2 7 3 3 2 23 6 38 8 5 1 32
2 59 2 45 1 50 1 57 3 4 1 11 2 16 2 10 1 19 3 22 5 2 0 5 1 7 1 2 0 8 1 13 3
4 1 13 3 18 4 5 1 10 2 11 3 1 1 4 2 7 3 3 1 7 2 8 3 2 1 6 2 9 3 2 1 6 2 8 3
1 1 4 2 7 3 2 1 4 2 5 3 1 0 4 2 7 3 3 1 6 3 7 4 1 0 4 2 6 2 2 1 5 3 7 4 1 1
3 2 5 3 2 0 3 1 4 2 0 0 3 2 5 4 6 2 19 10 25 14 6 5 11 9 12 9 1 0 7 5 12 9
1 1 3 2 4 3 2 1 4 3 13 10 2 1 4 4 6 6 5 4 36 34 47 46 5 5 9 10 10 11 0 2 1
3 2 3 0 0 1 1 2 3 2 2 3 4 5 5 1 1 2 3 2 4 0 0 1 2 3 4 1 1 2 3 2 3 0 0 1 3 3
5 3 4 5 7 10 14 1 3 3 5 3 6 1 1 2 2 2 4 1 1 2 3 3 5 2 1 3 4 5 6 8 16 11 22
11 24 0 0 1 2 3 4 1 2 3 6 3 8 1 2 2 5 3 6 1 1 3 5 4 8 0 3 2 6 3 8 0 1 1 4 2
6 1 3 2 6 3 8 1 1 2 5 3 8 1 3 2 8 3 12 2 3 3 8 4 11 0 2 1 7 2 10 1 2 3 8 4
12 0 4 1 8 2 9 1 3 3 12 5 28 0 8 2 17 2 20 3 14 3 83 0 99 -1 4 -2 12 -3 18
-1 6 -2 15 -4 19 -1 4 -2 11 -3 14 0 4 -1 9 -2 13 -2 3 -3 8 -3 10 -1 3 -2 7
-3 10 -1 3 -3 8 -3 13 -1 4 -3 8 -4 9 0 1 -2 4 -3 8 0 3 -2 6 -2 7 -1 2 -3 6
-4 9 -1 4 -3 7 -4 8 0 1 -1 2 -1 3 0 1 -6 13 -11 24 -1 1 -2 3 -2 4 0 1 -1 3
-2 4 -2 1 -3 4 -4 6 -1 2 -2 4 -3 5 0 1 -2 3 -3 4 -1 2 -2 4 -3 6 -1 1 -2 3
-3 5 -1 2 -2 4 -3 5 -1 1 -3 3 -4 5 -2 4 -6 10 -8 12 -1 1 -2 3 -3 4 -1 1 -3
5 -6 8 -2 4 -5 7 -6 8 -5 8 -16 20 -31 35 -21 20 -25 25 -28 26 -1 1 -4 3 -7
6 -3 2 -6 5 -8 6 -1 1 -5 4 -7 5 -2 2 -6 5 -7 6 -2 1 -5 3 -6 4 -2 1 -5 3 -7
5 -2 1 -5 3 -6 3 -1 1 -4 3 -6 4 -1 1 -4 3 -6 5 -7 4 -15 8 -19 10 -2 1 -5 3
-6 4 -1 0 -4 2 -6 3 -2 0 -5 2 -6 2 -1 1 -4 3 -7 4 -12 4 -18 6 -20 8 -1 1 -5
2 -8 3 -2 1 -6 3 -8 3 -2 1 -6 3 -9 3 -3 1 -7 2 -8 2 -1 1 -6 3 -10 3 -4 1
-10 3 -13 5 -3 1 -9 2 -12 3 -4 0 -8 1 -10 2 -3 1 -20 4 -38 6 -5 1 -12 1 -14
2 -15 3 -81 2 -94 -1 -2 -1 -10 -2 -18 -3 -14 -1 -23 -2 -30 -5 -3 0 -8 -1
-12 -1 -4 -1 -9 -2 -12 -4 -3 -1 -7 -2 -8 -2 -1 0 -6 -2 -11 -3 -6 -2 -11 -4
-13 -4 -1 0 -4 -1 -6 -2 -3 -2 -6 -3 -8 -3 -2 -1 -5 -2 -7 -3 -3 -2 -6 -3 -8
-4 -3 -1 -5 -2 -6 -3 -1 0 -4 -2 -6 -2 -2 -1 -6 -3 -7 -4 -3 -3 -8 -4 -10 -2
0 1 -1 3 -2 6 -1 2 -2 5 -3 7 -1 2 -3 7 -3 12 -1 5 -3 12 -4 16 -1 5 -1 12 -1
35 0 28 0 29 2 38 2 6 3 11 3 12 0 2 1 5 3 9 2 3 3 6 3 7 0 1 4 11 9 20 4 8 9
16 17 25 10 12 29 30 32 30 0 0 2 1 3 2 3 3 17 11 20 11 1 0 3 1 4 2 2 1 6 3
9 4 3 1 7 2 9 3 1 1 4 2 5 2 3 0 13 2 21 4 8 2 43 3 51 1 12 -2 28 -6 30 -7 1
-1 4 -3 6 -4 2 0 5 -2 6 -3 2 -1 4 -2 5 -3 1 -1 5 -3 7 -5 6 -5 13 -10 18 -13
2 -1 6 -4 8 -6 2 -1 7 -4 9 -5 2 -1 6 -3 7 -4 1 -1 5 -2 7 -3 2 -1 6 -2 7 -3
1 -1 5 -2 7 -3 2 -1 5 -2 7 -3 1 -1 5 -2 8 -3 3 -1 8 -2 11 -3 3 -1 11 -3 18
-3 7 -1 14 -2 15 -3 7 -2 27 -3 63 -3 21 1 40 1 43 2 9 2 20 3 36 4 8 1 21 2
29 3 7 1 21 2 31 3 10 1 20 2 24 3 4 0 12 2 18 2 7 1 15 3 18 4 4 1 9 2 12 3
3 1 7 2 9 3 1 1 4 2 6 2 2 1 5 2 8 4 2 2 4 3 5 3 0 0 2 1 4 3 2 1 6 4 9 6 7 4
22 20 27 26 2 3 5 8 7 10 1 2 4 6 5 9 1 2 3 4 4 5 0 1 1 3 2 5 1 2 2 5 3 6 1
2 3 5 4 9 1 3 2 6 3 6 3 4 5 31 3 40 -1 8 -3 11 -11 20 -6 6 -11 10 -18 14 -2
1 -7 3 -9 5 -3 1 -7 3 -8 4 -1 1 -4 2 -6 3 -1 1 -7 3 -12 6 -5 3 -10 5 -11 6
-2 0 -4 1 -5 3 -1 1 -5 2 -7 3 -2 1 -7 2 -9 4 -3 1 -6 2 -6 2 -1 0 -4 1 -7 3
-4 2 -7 3 -8 3 -3 0 -25 12 -29 16 -2 1 -7 6 -12 11 -20 19 -28 26 -45 33 -3
2 -5 3 -5 4 0 1 -3 2 -6 3 -3 0 -7 2 -8 3 -2 1 -6 2 -8 3 -3 1 -8 2 -10 3 -3
1 -7 2 -10 3 -3 1 -6 2 -8 3 -1 1 -5 2 -10 3 -3 0 -8 2 -11 3 -2 0 -8 2 -13 3
-5 1 -12 3 -15 4 -3 1 -7 2 -9 2 -1 0 -6 1 -10 2 -14 5 -62 8 -78 6z m-65
-513 c15 -1 23 -2 28 -3 3 -1 8 -2 12 -2 4 -1 8 -2 10 -3 1 -1 7 -3 12 -3 5
-1 10 -3 12 -3 1 -1 5 -2 8 -3 2 -1 7 -2 10 -3 2 -2 6 -3 7 -4 2 0 6 -2 9 -3
3 -2 6 -3 7 -3 1 0 4 -1 8 -3 3 -2 6 -3 7 -3 0 0 2 -1 4 -2 1 -2 5 -3 7 -4 2
-1 5 -2 6 -3 1 0 3 -2 5 -2 3 -1 11 -6 16 -10 1 -1 4 -3 6 -3 3 -2 8 -5 13 -9
1 -1 4 -2 5 -2 1 -1 2 -2 3 -3 1 -1 3 -3 4 -4 3 -1 8 -5 13 -9 1 -2 3 -3 4 -4
4 -2 37 -33 46 -44 4 -5 8 -9 9 -10 1 -1 5 -6 9 -10 3 -5 7 -10 8 -11 2 -2 3
-5 4 -7 1 -2 3 -4 3 -4 1 0 2 -2 4 -5 1 -2 3 -7 5 -9 2 -2 4 -7 5 -10 2 -2 3
-5 4 -5 1 -1 8 -16 9 -20 1 -1 2 -3 3 -4 1 -2 2 -5 3 -7 1 -2 2 -5 3 -6 0 -1
2 -4 3 -7 1 -3 3 -7 3 -9 1 -1 3 -5 3 -8 1 -3 2 -7 4 -9 1 -3 2 -6 3 -8 0 -3
1 -7 2 -9 1 -2 3 -8 4 -13 0 -5 2 -10 3 -11 0 -2 2 -9 3 -16 0 -6 2 -14 3 -16
1 -4 3 -19 5 -54 1 -13 1 -20 0 -34 -2 -25 -4 -45 -6 -49 0 -2 -2 -8 -2 -14
-1 -5 -3 -11 -3 -13 -1 -2 -3 -7 -3 -11 -1 -4 -3 -10 -4 -12 -1 -2 -2 -6 -3
-8 0 -2 -1 -5 -2 -7 -2 -3 -3 -7 -4 -9 0 -3 -2 -8 -3 -10 -2 -3 -3 -6 -3 -7 0
0 -1 -4 -3 -7 -2 -3 -3 -6 -3 -7 0 -1 -1 -3 -2 -4 -1 -1 -3 -3 -3 -6 -1 -3 -3
-7 -4 -9 -2 -2 -3 -4 -3 -5 0 0 -1 -2 -3 -4 -2 -3 -3 -5 -3 -5 0 -1 -1 -3 -3
-6 -2 -2 -3 -4 -3 -4 0 -1 -4 -8 -9 -13 -2 -2 -3 -5 -3 -6 -1 -1 -4 -5 -7 -9
-3 -4 -7 -9 -8 -11 -11 -14 -33 -38 -44 -47 -3 -2 -8 -6 -11 -9 -3 -2 -6 -5
-8 -7 -1 -1 -4 -3 -6 -5 -2 -1 -5 -4 -7 -5 -3 -2 -7 -5 -9 -7 -2 -1 -6 -3 -7
-4 -1 -1 -4 -2 -5 -4 -4 -3 -13 -9 -14 -9 -1 0 -3 -1 -4 -2 -2 -1 -5 -3 -7 -4
-2 -2 -7 -4 -11 -7 -4 -2 -9 -4 -12 -5 -2 -1 -4 -2 -5 -3 -1 0 -4 -2 -6 -2 -2
-1 -7 -3 -9 -4 -2 -2 -6 -3 -8 -3 -2 -1 -6 -2 -7 -3 -2 -1 -6 -2 -10 -3 -4 -1
-7 -2 -8 -3 -1 -1 -6 -2 -10 -3 -4 -1 -9 -3 -12 -3 -2 -1 -9 -3 -15 -4 -6 0
-13 -2 -15 -3 -3 -1 -12 -2 -26 -2 -12 -1 -24 -2 -28 -2 -3 -1 -19 -1 -34 -2
-37 -1 -53 -3 -63 -5 -4 -1 -11 -3 -15 -3 -4 -1 -10 -2 -12 -3 -3 -2 -7 -3
-10 -3 -2 -1 -5 -2 -7 -3 -2 -2 -5 -3 -7 -4 -2 -1 -4 -2 -5 -3 -1 0 -3 -1 -5
-2 -2 -1 -6 -3 -8 -5 -3 -1 -5 -4 -6 -4 -7 -5 -13 -10 -13 -12 -1 -1 -2 -2 -3
-4 -10 -10 -18 -27 -23 -43 -3 -14 -4 -29 -1 -39 1 -4 2 -9 3 -12 1 -3 2 -5 3
-6 0 -1 1 -3 2 -5 1 -2 3 -5 4 -8 5 -8 3 -10 -6 -4 -7 3 -23 18 -29 26 -8 11
-16 28 -21 43 -1 7 -3 30 -3 38 2 15 3 26 5 29 1 2 3 6 3 9 1 4 3 7 3 8 1 1 2
3 2 4 2 4 8 16 11 20 1 1 4 4 5 7 1 2 4 4 5 6 1 1 5 5 8 9 3 3 7 7 8 8 2 1 6
4 9 6 2 3 6 6 8 7 4 2 8 5 14 9 2 2 4 3 5 3 0 0 2 1 5 3 2 2 4 3 5 3 1 0 4 1
6 3 2 2 5 3 6 3 0 0 3 1 6 3 3 2 6 3 7 3 1 0 4 1 6 2 3 2 7 3 10 4 3 0 8 2 11
3 3 2 8 3 10 3 3 1 9 2 14 4 4 1 13 2 18 2 5 1 15 2 21 3 6 1 22 2 34 3 22 1
34 2 41 4 1 1 7 2 13 2 6 1 13 3 17 4 4 1 9 2 12 3 3 0 7 1 8 2 1 1 5 2 8 3 2
1 6 2 8 3 3 1 7 3 9 4 10 3 20 8 22 10 2 1 4 2 5 3 6 3 14 8 22 13 14 10 15
11 17 12 1 1 6 5 10 9 15 12 24 21 29 27 2 2 6 7 9 11 4 4 7 8 7 8 0 1 2 4 5
7 3 3 6 7 6 9 1 2 3 4 4 6 2 2 7 10 9 15 1 2 2 4 3 4 0 0 1 1 2 3 1 2 4 9 7
15 3 7 6 13 6 14 0 0 1 2 2 3 1 2 3 6 4 10 1 4 2 9 3 10 1 1 2 6 3 11 1 5 3
11 3 14 1 2 2 7 3 11 0 3 1 12 3 18 2 11 2 13 2 41 0 17 0 31 -1 34 0 2 -2 8
-3 13 0 5 -1 11 -2 14 -1 3 -3 12 -5 21 -2 8 -5 17 -6 21 0 4 -2 7 -3 8 0 1
-2 4 -2 6 -1 2 -3 7 -4 10 -2 2 -4 6 -5 8 0 2 -3 6 -4 9 -2 3 -5 8 -6 11 -2 3
-3 5 -4 5 0 1 -2 3 -3 5 -1 3 -3 6 -4 8 -2 2 -4 5 -5 7 -1 2 -4 5 -6 7 -2 2
-3 5 -3 5 0 1 -1 2 -12 14 -17 19 -32 34 -44 42 -3 2 -7 4 -9 6 -1 1 -5 4 -8
5 -2 2 -6 4 -8 5 -7 5 -13 8 -22 13 -5 2 -12 5 -15 7 -4 2 -7 3 -8 3 0 0 -3 1
-5 2 -3 1 -7 3 -11 4 -10 3 -21 6 -27 8 -15 5 -43 8 -87 9 -46 1 -60 2 -70 5
-4 1 -10 2 -12 3 -11 2 -33 10 -38 15 -2 1 -5 2 -8 3 -2 0 -4 2 -4 2 -1 1 -3
3 -5 3 -4 2 -7 5 -13 10 -2 2 -4 3 -4 3 -2 0 -15 13 -15 15 0 0 1 2 3 2 1 1 3
3 4 4 1 1 3 2 5 3 2 0 4 1 5 2 2 1 5 2 8 3 3 1 6 3 8 4 1 1 5 2 7 3 3 0 6 2 8
3 2 1 6 2 9 3 4 1 7 2 9 3 1 0 5 1 10 2 4 1 10 2 14 3 3 2 8 3 12 3 4 1 10 2
14 3 5 2 15 3 34 4 11 1 61 1 80 -1z m-25 -151 c10 -1 17 -2 21 -3 4 -1 10 -2
15 -3 8 -1 22 -5 34 -10 16 -7 32 -15 35 -17 2 -1 4 -3 7 -4 8 -4 23 -15 36
-26 12 -9 33 -31 36 -36 0 -2 2 -3 2 -4 1 0 2 -2 4 -4 1 -1 3 -6 6 -9 2 -4 5
-9 7 -11 1 -3 4 -8 5 -12 5 -10 11 -22 12 -26 0 -2 1 -5 2 -6 1 -2 3 -5 3 -8
1 -3 3 -7 3 -9 1 -1 3 -7 4 -13 1 -6 3 -13 4 -16 4 -17 4 -82 -1 -96 -1 -2 -3
-8 -3 -13 -1 -5 -3 -11 -4 -13 -1 -3 -2 -7 -3 -9 -1 -2 -2 -5 -3 -6 0 -2 -2
-4 -2 -6 -1 -4 -6 -15 -9 -20 0 -1 -2 -4 -3 -7 -1 -2 -3 -5 -4 -6 -1 -1 -3 -4
-3 -6 -3 -6 -7 -11 -9 -13 -1 -1 -2 -3 -3 -4 -2 -5 -12 -16 -20 -25 -2 -2 -5
-5 -7 -8 -2 -2 -6 -6 -9 -8 -2 -2 -7 -6 -10 -9 -4 -3 -7 -6 -9 -7 -1 -1 -4 -2
-5 -4 -2 -1 -4 -2 -4 -2 -1 0 -2 -1 -4 -2 -1 -1 -6 -4 -12 -7 -5 -3 -14 -8
-19 -10 -4 -3 -9 -5 -9 -5 -1 0 -4 -1 -7 -2 -2 -2 -7 -3 -10 -4 -3 -1 -7 -2
-8 -3 -2 -1 -6 -2 -10 -3 -4 -1 -7 -2 -8 -2 -4 -2 -17 -4 -37 -6 -38 -2 -71 1
-103 12 -2 1 -7 3 -9 4 -12 3 -18 6 -21 8 -2 1 -4 2 -5 2 0 0 -2 1 -4 2 -2 2
-5 3 -6 4 -3 0 -12 6 -20 11 -3 2 -7 5 -8 6 -2 1 -7 4 -11 8 -4 3 -7 6 -8 6
-2 0 -31 32 -38 41 -1 2 -4 6 -5 8 -2 2 -4 5 -5 7 -2 2 -4 6 -5 9 -6 8 -11 19
-12 23 -1 2 -2 5 -3 7 -1 1 -2 5 -3 8 -1 3 -2 7 -4 10 -1 2 -2 5 -3 7 0 2 -1
5 -2 8 -1 2 -3 12 -5 22 -3 17 -3 18 -3 47 0 29 0 30 3 48 3 17 7 33 11 40 1
2 2 6 3 8 1 6 13 30 16 34 1 2 2 4 2 5 0 1 1 3 3 5 2 2 3 4 3 5 0 0 1 2 2 3 1
1 3 3 4 4 1 2 3 5 4 7 2 2 4 5 5 6 5 7 10 11 22 24 7 7 15 14 17 15 5 5 13 10
17 14 2 2 5 3 5 3 1 0 3 1 5 3 2 2 5 3 6 3 0 0 2 1 5 3 2 2 4 3 4 3 1 0 3 1 5
2 2 2 5 3 6 3 1 1 5 2 8 4 17 8 34 13 46 15 5 1 9 1 10 2 3 2 14 3 29 4 24 1
24 1 41 0z m-235 -486 c2 0 4 -2 6 -4 5 -4 14 -12 16 -13 1 -1 4 -4 7 -6 11
-8 25 -17 29 -19 1 -1 4 -3 6 -4 3 -2 5 -3 5 -3 1 0 2 -1 4 -2 1 -1 4 -2 7 -3
4 -1 11 -7 10 -9 -1 -2 -8 -5 -20 -8 -4 -1 -8 -3 -9 -4 -1 -1 -4 -2 -17 -9 -3
-1 -6 -3 -7 -4 -1 -1 -3 -2 -5 -3 -6 -3 -9 -6 -13 -8 -2 -2 -6 -5 -8 -6 -2 -2
-6 -5 -8 -7 -2 -2 -6 -5 -8 -7 -2 -2 -6 -5 -7 -6 -3 -3 -3 -3 -5 -2 -1 2 -1 2
1 8 2 3 3 7 4 10 0 2 1 7 3 12 1 5 2 14 3 19 1 6 2 18 3 26 1 14 1 17 0 28 -3
27 -3 26 3 24z m228 -322 c3 -1 9 -2 13 -3 3 -1 8 -3 12 -4 13 -4 16 -5 24 -9
14 -7 25 -14 34 -21 11 -10 15 -14 17 -20 3 -8 3 -10 0 -17 -2 -6 -8 -13 -13
-16 -2 -1 -5 -3 -7 -4 -5 -6 -6 -7 -11 -9 -2 -1 -7 -4 -10 -6 -10 -5 -22 -11
-23 -11 -1 0 -3 -1 -6 -3 -2 -1 -7 -3 -11 -3 -4 -1 -8 -3 -10 -4 -3 -1 -6 -1
-24 -1 -19 0 -21 0 -25 2 -2 1 -6 2 -9 3 -2 1 -6 2 -8 4 -2 1 -4 2 -4 2 -3 0
-20 17 -21 20 -1 2 -2 5 -4 7 -7 10 -9 30 -4 46 2 5 4 9 4 10 1 1 3 4 4 6 3 7
11 16 19 21 4 2 7 4 7 4 1 0 4 1 8 3 11 5 27 6 48 3z"/>
    <path d="M1082 1012 c-1 -1 -3 -4 -3 -5 -2 -4 -6 -10 -9 -12 -1 -2 -3 -4 -3
-6 -2 -4 -6 -10 -9 -13 -1 -1 -2 -3 -3 -4 -1 -2 -2 -4 -3 -6 -3 -4 -9 -13 -9
-14 0 -1 -1 -3 -3 -5 -2 -2 -3 -4 -4 -5 0 -1 -2 -4 -4 -5 l-4 -3 -45 -1 c-29
0 -46 0 -47 -1 -3 -2 -2 -4 1 -7 2 -2 3 -4 3 -5 0 -2 1 -4 3 -6 2 -3 3 -5 3
-5 0 -1 1 -3 3 -5 2 -2 3 -4 3 -5 0 -1 1 -3 3 -4 1 -1 3 -4 3 -6 1 -2 2 -5 3
-5 1 -1 3 -2 3 -4 1 -2 2 -4 3 -4 2 -1 3 -3 3 -5 1 -2 2 -5 4 -6 2 -2 2 -2 1
-4 -1 -1 -5 -2 -54 -2 -47 0 -52 -1 -53 -2 -1 -1 -1 -3 1 -5 2 -2 4 -5 4 -7 2
-4 6 -10 9 -14 2 -2 3 -4 3 -5 0 0 1 -2 2 -3 1 -1 3 -4 4 -6 1 -2 2 -4 3 -5 1
0 2 -2 4 -4 1 -2 4 -6 6 -8 1 -2 4 -6 5 -9 1 -2 3 -4 4 -5 1 -1 3 -5 5 -8 l2
-6 -2 -5 c-2 -3 -5 -7 -6 -9 -2 -2 -3 -4 -3 -4 0 -1 -1 -3 -2 -4 -1 -1 -3 -3
-4 -5 -1 -3 -3 -6 -9 -12 0 -1 -2 -4 -3 -6 0 -1 -1 -3 -2 -4 -1 0 -4 -4 -7 -8
-3 -5 -7 -11 -9 -14 -6 -9 -7 -10 -5 -13 1 -2 2 -2 4 -2 1 0 24 0 50 0 41 0
48 0 50 -2 2 -1 3 -4 1 -6 -1 -1 -2 -3 -3 -5 -1 -1 -2 -3 -2 -3 -1 0 -2 -2 -3
-5 -2 -2 -4 -5 -4 -6 -1 -1 -2 -3 -3 -5 -1 -1 -2 -3 -2 -3 -1 0 -2 -2 -3 -5
-1 -2 -3 -6 -5 -7 -1 -2 -2 -4 -2 -4 0 -1 -1 -3 -3 -5 -2 -3 -3 -5 -3 -5 0 -1
-1 -4 -3 -7 -2 -4 -2 -5 -1 -6 1 -1 13 -2 47 -2 l47 0 3 -3 c2 -2 3 -5 4 -7 1
-1 2 -3 3 -3 0 -1 2 -3 3 -5 1 -3 3 -5 3 -5 0 0 2 -2 3 -4 1 -3 3 -6 4 -8 2
-1 4 -6 6 -9 2 -3 5 -7 6 -9 2 -2 4 -5 5 -7 1 -2 4 -5 6 -8 2 -2 4 -5 4 -5 0
-2 4 -5 7 -5 2 0 3 1 5 3 2 4 6 9 10 14 2 2 3 4 3 5 0 0 1 2 3 4 3 3 7 9 9 13
1 2 2 3 3 4 0 0 2 2 3 5 1 2 3 4 3 5 1 1 3 3 4 5 0 2 1 3 2 3 0 0 2 2 3 5 1 3
3 6 4 7 1 1 2 2 2 3 0 3 9 3 51 3 36 -1 44 -1 45 1 2 1 0 7 -2 9 -1 1 -2 3 -2
5 -1 1 -2 3 -3 5 -1 1 -3 3 -3 5 -1 2 -3 4 -4 5 -1 1 -2 3 -3 5 0 2 -1 5 -3 7
-2 2 -3 4 -3 4 0 1 -1 3 -3 5 -2 3 -3 5 -3 6 0 0 -1 2 -2 3 -1 1 -3 4 -4 6 -2
4 -2 4 -1 7 1 1 2 2 3 2 0 0 2 0 4 0 6 1 85 1 90 0 3 0 4 0 5 2 2 3 1 6 -2 9
-1 1 -2 3 -2 5 -1 2 -2 4 -4 5 -1 1 -2 3 -2 3 0 1 -2 5 -5 9 -3 3 -6 8 -7 11
-1 2 -4 6 -6 9 -2 3 -6 8 -8 12 -3 4 -6 8 -7 9 -5 9 -6 11 -5 15 1 2 2 6 4 8
2 2 5 6 7 9 1 3 4 7 5 8 2 2 3 5 4 7 1 2 2 3 3 3 0 0 1 1 2 3 1 2 3 5 5 7 1 2
3 5 4 6 0 1 1 2 1 2 0 0 1 1 1 2 1 1 3 4 5 6 1 2 3 5 3 5 0 1 1 3 2 5 2 2 3 5
4 7 2 6 4 6 -53 6 -56 0 -57 0 -52 6 1 1 2 3 2 4 0 1 1 3 3 5 2 2 3 4 3 5 0 0
1 2 3 4 2 1 3 3 3 4 0 1 1 3 3 5 1 2 3 4 4 6 3 6 6 9 8 13 2 2 3 4 3 5 0 1 1
3 2 4 2 2 5 7 5 9 0 4 -2 4 -46 4 -24 0 -45 0 -46 1 -3 1 -12 11 -12 14 0 0
-1 2 -2 3 -2 1 -3 3 -3 3 0 1 -2 3 -3 6 -2 2 -4 4 -4 5 0 1 -1 2 -2 3 -1 1 -3
3 -4 5 -1 2 -2 5 -4 7 -1 1 -4 5 -5 8 -2 3 -5 7 -6 8 -1 2 -3 5 -4 7 -7 10 -8
11 -11 11 -1 0 -4 -1 -5 -2z m10 -14 c1 -3 2 -5 3 -5 1 -1 2 -3 3 -5 0 -2 2
-5 3 -6 2 -2 3 -4 3 -4 0 -1 7 -11 9 -14 1 -1 2 -3 3 -5 1 -2 2 -3 2 -3 1 0 2
-1 2 -3 1 -1 3 -4 4 -5 3 -4 5 -7 5 -11 l1 -3 -42 -1 c-26 0 -43 0 -43 1 -2 1
-1 8 2 10 1 1 2 3 2 4 0 0 1 2 3 4 1 2 3 5 5 7 1 2 3 6 6 9 4 6 6 10 10 16 1
2 3 5 5 7 2 2 3 5 3 6 0 1 6 5 8 5 1 0 2 -2 3 -4z m-73 -74 c1 -2 0 -7 -3 -10
-1 -2 -3 -4 -4 -7 -1 -2 -3 -4 -3 -4 -1 -1 -2 -2 -3 -4 -1 -2 -2 -4 -2 -4 -1
0 -2 -2 -3 -5 -2 -2 -4 -5 -5 -6 -1 -1 -2 -3 -2 -3 0 -1 -1 -2 -2 -3 -1 -1 -3
-4 -3 -7 -2 -4 -4 -5 -8 -3 -2 1 -3 2 -4 5 -1 2 -2 4 -3 5 -1 1 -2 4 -3 6 -1
2 -2 5 -4 6 -1 2 -2 4 -2 4 0 0 -1 2 -3 5 -2 2 -3 4 -3 5 0 1 -1 3 -2 4 -1 1
-3 4 -5 7 -1 2 -3 5 -3 6 -1 2 -1 2 0 3 1 1 15 1 35 1 27 0 34 0 35 -1z m120
-1 c3 -2 13 -18 13 -19 0 -1 1 -2 2 -3 3 -3 10 -13 10 -15 0 0 1 -1 2 -3 3 -3
9 -11 11 -15 0 -2 2 -3 3 -4 2 0 1 -4 -1 -4 -1 -1 -13 -1 -28 -1 l-26 0 -4 4
c-2 2 -4 5 -4 6 0 1 -1 2 -2 3 -1 1 -2 4 -3 6 -1 2 -3 5 -4 7 -1 1 -2 4 -3 6
-1 3 -3 5 -3 6 -1 0 -2 2 -9 15 -3 5 -6 6 -10 4 -1 -1 -3 -4 -3 -6 -1 -2 -3
-4 -4 -6 -2 -1 -3 -4 -4 -6 -1 -2 -2 -3 -2 -3 0 0 -2 -2 -3 -5 -1 -2 -2 -5 -3
-6 -2 -3 -6 -10 -9 -16 -1 -2 -3 -5 -5 -6 l-3 -3 -26 0 c-31 0 -31 0 -26 7 2
3 5 7 6 9 1 2 4 6 7 9 2 4 4 8 6 10 1 1 2 4 3 5 2 2 4 5 8 12 1 2 3 6 5 9 l4
5 52 0 c46 0 52 0 53 -2z m85 1 c1 -2 1 -3 0 -5 -1 -2 -2 -4 -3 -4 0 0 -1 -2
-2 -4 -1 -2 -2 -3 -3 -4 0 0 -2 -2 -3 -5 -1 -3 -2 -5 -3 -5 0 0 -2 -2 -3 -4
-1 -3 -3 -6 -4 -8 -2 -2 -3 -4 -3 -4 0 -1 -1 -2 -2 -3 -1 -2 -2 -4 -3 -7 -1
-3 -2 -3 -6 -3 -4 0 -4 0 -6 4 0 2 -2 5 -2 6 -1 0 -2 2 -3 4 -1 2 -2 3 -3 3
-1 0 -2 2 -3 6 -2 3 -3 5 -4 5 0 0 -1 1 -2 2 0 2 -2 5 -4 7 -1 3 -3 5 -3 6 0
0 -1 2 -2 2 -3 2 -5 9 -4 11 1 1 13 1 36 1 28 0 34 0 35 -1z m-132 -28 c1 -2
4 -7 6 -10 1 -4 4 -9 5 -11 1 -3 3 -5 3 -5 1 0 4 -8 3 -9 0 0 -10 -1 -22 -1
-24 -1 -26 0 -23 4 1 1 3 5 4 8 17 32 19 33 24 24z m-122 -49 c0 -4 0 -5 -2
-6 -2 -1 -3 -3 -4 -5 -1 -2 -2 -4 -4 -5 -1 -1 -2 -3 -2 -4 0 -1 -1 -3 -2 -4
-1 -1 -3 -3 -4 -5 -1 -3 -3 -5 -4 -6 -1 -1 -2 -3 -2 -3 0 -1 -1 -3 -2 -4 -1
-1 -3 -3 -4 -6 -1 -2 -2 -4 -3 -5 -1 -1 -3 -3 -3 -5 -1 -1 -3 -4 -5 -5 -3 -1
-3 -1 -5 1 -1 1 -3 4 -5 6 -2 2 -3 5 -3 5 0 1 -1 3 -2 3 -2 1 -3 3 -3 3 0 1
-1 3 -2 5 -4 5 -6 9 -8 13 -2 2 -4 5 -5 6 -2 2 -3 5 -3 6 -1 2 -2 3 -3 4 -2 1
-3 3 -3 3 0 1 -1 3 -2 4 -3 3 -3 7 0 8 3 0 21 1 56 1 l29 0 0 -5z m66 3 c3 0
4 -1 5 -3 1 -2 1 -3 -1 -5 -2 -1 -3 -4 -4 -5 0 -1 -1 -3 -2 -4 -1 -2 -3 -4 -4
-6 -6 -11 -8 -13 -11 -14 -3 0 -3 0 -5 5 -2 3 -3 5 -4 5 -1 1 -2 3 -3 5 0 2
-2 5 -4 7 -6 7 -7 9 -7 12 0 2 0 4 1 4 2 1 34 0 39 -1z m140 1 c3 -2 1 -9 -3
-14 -2 -2 -3 -4 -3 -5 0 0 -1 -2 -2 -3 -1 -1 -2 -3 -3 -5 -1 -2 -2 -5 -3 -6
-2 -2 -3 -4 -3 -4 0 -1 -1 -2 -2 -3 -1 -1 -2 -1 -5 2 -2 2 -4 5 -5 7 -1 2 -4
6 -5 9 -8 12 -10 17 -9 19 1 2 2 2 11 2 8 0 28 1 30 2 0 0 1 -1 2 -1z m113 0
c0 -1 1 -2 1 -3 1 -3 -2 -8 -7 -13 -1 -1 -3 -3 -4 -6 0 -2 -2 -4 -3 -5 0 -1
-2 -3 -3 -4 -1 -2 -3 -5 -4 -7 -6 -8 -17 -25 -20 -28 -1 -3 -4 -4 -4 -2 0 0
-1 2 -3 3 -1 1 -3 4 -4 7 -1 2 -3 4 -3 4 -1 1 -2 2 -2 4 -1 1 -2 4 -3 5 -1 1
-3 3 -4 5 -1 2 -3 4 -3 4 -1 0 -2 2 -3 4 -4 6 -11 17 -15 21 -2 2 -3 4 -3 7 0
2 0 4 0 4 1 1 85 0 87 0z m-213 -2 c2 -2 2 -6 0 -7 -1 -1 -5 -6 -9 -14 -1 -3
-3 -6 -5 -8 -3 -3 -3 -3 -13 -3 -14 0 -14 1 -5 16 2 3 5 7 6 9 3 7 8 9 17 9 6
0 8 0 9 -2z m42 -1 c2 -1 4 -4 5 -5 2 -5 6 -13 8 -15 2 -2 4 -8 4 -9 -1 -2 -3
-2 -11 -2 l-11 0 -4 5 c-2 3 -4 7 -4 8 -1 2 -2 4 -3 5 -3 4 -7 10 -6 12 0 0 0
2 0 3 1 1 3 1 10 1 7 0 9 0 12 -3z m-131 -3 c0 -1 1 -3 1 -5 1 -1 2 -4 4 -5 2
-2 3 -4 3 -4 0 -1 1 -2 2 -3 0 -1 2 -4 4 -6 1 -3 4 -7 5 -10 2 -3 4 -6 5 -7 2
-3 2 -10 -1 -13 -1 -1 -3 -4 -3 -6 -1 -2 -3 -4 -4 -5 -1 -2 -2 -4 -3 -6 -1 -3
-1 -5 0 -8 1 -2 3 -4 4 -5 0 -1 2 -4 2 -6 1 -2 3 -5 4 -7 2 -2 2 -5 -2 -10 -1
-2 -2 -4 -2 -5 0 -1 -1 -2 -2 -3 -1 -1 -3 -4 -3 -7 -1 -2 -3 -4 -3 -4 -1 0 -2
-2 -3 -4 0 -2 -2 -5 -4 -6 -1 -1 -2 -4 -3 -6 0 -3 -1 -4 -3 -4 -4 0 -7 1 -8 4
0 2 -2 5 -3 6 -2 2 -3 4 -4 6 0 1 -1 3 -3 3 -1 1 -2 3 -2 3 0 1 -1 3 -3 5 -2
2 -3 4 -4 6 0 2 -1 3 -2 4 -1 0 -2 2 -3 5 -1 2 -2 4 -3 4 -1 0 -2 2 -2 4 -1 2
-3 5 -4 6 -2 2 -3 4 -3 5 0 0 -1 3 -3 5 -4 4 -5 10 -1 13 2 2 3 4 3 5 1 1 2 4
3 5 2 1 4 4 4 6 1 2 2 3 3 3 0 0 2 2 3 5 1 2 2 4 3 4 0 0 2 2 3 5 2 5 5 9 9
15 2 1 3 3 3 4 0 0 1 2 3 5 2 2 3 4 3 4 0 1 1 3 2 4 1 2 6 3 8 1z m208 -3 c1
-2 2 -5 4 -6 1 -1 2 -3 2 -4 0 0 1 -2 3 -4 2 -2 3 -4 3 -4 0 -1 1 -3 2 -4 1
-1 3 -3 4 -5 2 -4 4 -8 9 -14 1 -2 4 -6 8 -12 1 -2 3 -5 4 -6 2 -2 3 -5 4 -7
2 -4 2 -4 0 -8 -1 -2 -3 -4 -4 -5 -1 -1 -2 -2 -3 -4 0 -2 -1 -4 -3 -6 -2 -3
-4 -6 -8 -12 -1 -2 -3 -4 -3 -5 -1 0 -3 -3 -4 -5 -1 -3 -2 -5 -3 -5 0 0 -1 -1
-1 -2 -1 -1 -3 -4 -5 -6 -1 -2 -3 -5 -4 -7 0 -1 -1 -2 -2 -3 -1 -1 -2 -3 -3
-5 -1 -2 -2 -4 -2 -4 -3 0 -8 3 -9 5 0 3 -5 12 -9 16 -1 2 -3 5 -4 7 -1 3 -2
5 -3 5 0 0 -2 3 -3 7 -3 7 -3 7 -2 11 1 2 2 5 3 7 0 2 2 5 3 6 5 5 4 13 -1 21
-2 3 -3 5 -3 6 0 1 -1 3 -2 4 -1 1 -2 3 -2 5 0 2 1 4 2 6 1 1 2 3 2 4 0 1 1 3
3 5 1 2 3 5 3 7 1 1 2 4 3 5 1 1 3 3 3 5 1 1 3 3 4 4 1 1 2 2 3 5 0 4 2 6 7 6
3 0 3 -1 4 -4z m-104 -5 c0 -2 2 -4 3 -6 2 -2 3 -5 4 -7 2 -6 0 -7 -12 -7 -14
1 -14 0 -6 16 4 8 9 9 11 4z m13 -28 c3 -1 4 -2 6 -5 1 -2 3 -4 3 -5 3 -2 2
-9 0 -10 -2 -1 -53 -1 -55 0 0 1 -1 2 -1 4 0 2 1 4 8 12 l3 4 15 0 c9 0 16 1
17 1 0 0 2 0 4 -1z m-52 -1 c1 -1 1 -3 -4 -12 -3 -5 -6 -10 -7 -11 -2 -1 -8 3
-9 5 0 2 -1 4 -3 6 -3 4 -3 6 1 9 4 3 19 5 22 3z m91 -1 c2 -1 3 -3 4 -4 0 -3
-2 -10 -3 -11 -1 0 -2 -2 -3 -4 -2 -3 -4 -4 -8 -2 -3 2 -4 4 -10 13 -2 4 -3 9
-1 9 3 1 19 0 21 -1z m-118 -21 c1 -2 2 -5 4 -6 4 -6 3 -11 -2 -17 -1 -1 -2
-4 -2 -6 -1 -2 -2 -3 -3 -4 -2 -1 -7 4 -8 8 -1 3 -2 6 -3 8 -1 2 -1 3 1 9 2 3
3 6 3 7 0 1 5 4 7 4 0 0 2 -1 3 -3z m133 -2 c1 -2 2 -5 3 -6 2 -3 3 -9 1 -11
-1 -1 -3 -3 -4 -6 -1 -5 -1 -5 -4 -5 -4 0 -5 1 -7 6 -1 2 -2 5 -3 6 -3 2 -3 8
1 11 1 1 2 3 2 4 0 2 4 5 7 5 2 0 3 -1 4 -4z m-33 -4 c4 -5 4 -10 1 -15 -2 -1
-4 -4 -4 -6 -1 -2 -3 -5 -4 -6 -1 -2 -4 -6 -5 -9 l-4 -5 -7 -1 c-6 0 -8 0 -9
1 -2 2 0 7 3 10 1 1 2 3 2 4 0 0 2 3 4 5 1 2 3 5 3 5 0 1 1 3 2 4 1 1 3 3 4 4
2 5 8 13 10 13 0 0 2 -2 4 -4z m-65 -4 c1 -1 2 -4 4 -6 2 -2 3 -4 3 -4 0 -1 2
-5 5 -8 3 -4 6 -9 8 -11 1 -1 2 -4 3 -4 5 -3 0 -6 -9 -6 -7 0 -10 2 -13 7 -1
2 -3 6 -4 8 -2 2 -3 5 -4 6 -1 1 -2 2 -2 4 -1 1 -2 4 -4 6 -3 4 -2 7 2 11 l3
3 4 -2 c2 -1 4 -3 4 -4z m43 4 c2 -2 1 -8 -2 -10 0 -1 -3 -4 -6 -8 -2 -4 -5
-7 -6 -8 -2 -1 -7 3 -8 6 -1 2 -4 6 -7 10 -2 4 -4 7 -4 7 1 3 6 4 19 4 10 0
13 0 14 -1z m146 -20 c1 -1 2 -4 4 -5 1 -1 2 -3 2 -3 0 -1 1 -3 2 -4 2 -1 3
-4 4 -5 1 -2 2 -4 3 -5 1 -2 4 -6 6 -9 3 -4 6 -9 7 -10 1 -2 2 -3 2 -4 0 0 2
-3 4 -5 1 -2 3 -5 3 -5 0 -1 1 -2 3 -3 3 -4 2 -6 -3 -7 -2 -1 -21 -1 -43 -1
-38 0 -40 0 -41 2 -1 2 0 5 3 9 6 6 8 10 8 11 0 0 2 3 4 5 1 2 3 5 3 5 0 1 1
3 3 4 7 9 9 12 10 14 0 1 2 4 3 6 2 2 3 4 3 4 0 2 6 9 8 9 0 0 2 -1 2 -3z
m-319 -1 c3 -3 5 -6 9 -14 1 -2 5 -6 8 -10 3 -3 5 -6 5 -7 0 0 2 -3 4 -5 1 -2
3 -5 3 -5 0 -1 1 -3 2 -4 2 -1 3 -3 3 -4 1 -2 2 -3 3 -4 2 -1 3 -2 4 -5 1 -7
3 -6 -44 -6 -38 0 -42 0 -44 1 -1 2 -1 2 1 5 1 2 3 4 5 5 1 2 3 5 4 7 1 2 3 6
4 8 2 2 4 5 5 7 1 1 3 4 5 6 1 2 3 5 3 7 1 1 3 3 4 4 0 1 2 3 3 5 1 2 3 4 3 4
1 1 2 2 3 4 1 5 3 5 7 1z m113 -2 c1 -2 3 -6 5 -10 4 -5 4 -7 3 -8 -2 -2 -8
-2 -15 -2 -10 2 -12 4 -6 12 1 2 2 4 2 5 0 3 5 7 7 7 1 0 3 -1 4 -4z m97 -2
c1 -3 3 -6 4 -6 0 -1 1 -3 1 -5 0 -3 0 -4 -3 -5 -3 -1 -18 -1 -20 0 -1 2 1 7
4 11 2 2 3 4 3 6 1 2 2 3 3 4 3 2 5 1 8 -5z m-120 -22 c2 -2 4 -4 5 -6 0 -2 2
-5 4 -6 1 -2 2 -4 2 -4 0 -1 1 -3 2 -4 2 -2 3 -5 4 -7 1 -2 2 -4 3 -5 2 -2 2
-3 0 -5 -1 -1 -6 -1 -22 -1 -18 0 -21 0 -22 1 -2 2 0 7 2 9 1 1 3 4 4 5 0 2 3
6 5 10 2 4 5 8 6 11 3 5 3 5 7 2z m139 -2 c1 -2 3 -4 3 -5 1 -1 2 -2 2 -4 1
-2 2 -4 3 -5 1 -1 3 -3 4 -5 0 -2 2 -4 3 -5 1 -2 2 -4 4 -6 1 -4 1 -4 0 -6 -2
-1 -6 -1 -23 -1 -11 1 -21 1 -21 2 -2 0 -2 2 -1 4 1 1 2 2 2 4 1 2 2 4 3 6 2
2 5 6 9 15 2 4 7 10 9 10 1 0 2 -2 3 -4z m-102 -2 c3 -1 10 -11 10 -13 0 -1 1
-3 3 -6 8 -12 8 -12 7 -14 -1 0 -5 -1 -11 -1 -12 0 -12 -1 -21 17 -2 2 -4 5
-5 6 -2 3 -3 10 -1 11 1 1 15 1 18 0z m76 0 c3 -1 3 -6 0 -10 -2 -3 -4 -6 -5
-8 0 -2 -2 -5 -3 -6 -2 -2 -3 -5 -3 -6 -2 -4 -11 -6 -23 -4 -4 0 -5 1 -5 3 0
1 1 2 2 3 1 1 2 2 2 2 0 1 2 4 4 6 1 3 3 5 3 6 0 1 8 11 10 12 3 3 15 4 18 2z
m-35 -2 c2 -2 1 -5 -2 -10 -2 -2 -4 -5 -4 -7 -2 -4 -4 -6 -7 -5 -2 1 -3 2 -4
4 -1 2 -2 5 -4 8 -3 4 -4 8 -2 10 2 1 21 1 23 0z m-49 -44 c2 -1 4 -5 5 -8 2
-3 3 -5 4 -5 0 0 2 -2 3 -5 5 -10 7 -14 10 -16 1 -2 2 -4 2 -4 0 -1 1 -3 3 -6
2 -2 3 -4 4 -6 1 -4 3 -6 6 -6 3 0 6 2 6 4 0 1 1 4 3 6 4 5 5 6 9 14 1 3 3 6
5 7 1 2 2 4 2 4 0 1 1 3 3 6 1 2 3 5 3 6 1 1 3 4 5 6 l5 5 24 0 c23 1 24 1 26
-1 2 -2 2 -3 -2 -9 -6 -10 -8 -13 -10 -17 -2 -2 -5 -7 -8 -10 -2 -4 -5 -8 -5
-10 -1 -1 -3 -3 -3 -4 -1 -1 -2 -2 -3 -4 0 -3 -7 -10 -11 -11 -1 -1 -21 -1
-48 -1 -42 0 -46 0 -50 2 -3 2 -11 9 -11 12 0 0 -2 3 -3 6 -2 3 -4 5 -4 6 0 1
-7 11 -9 12 -1 1 -2 3 -3 6 -1 2 -2 4 -3 4 0 0 -1 1 -2 2 0 1 -2 4 -4 7 -4 5
-5 6 -2 9 1 2 3 2 26 2 22 -1 24 -1 27 -3z m49 2 c11 0 11 0 12 -2 1 -2 1 -4
-1 -7 -1 -2 -2 -4 -3 -4 0 0 -2 -2 -3 -5 -1 -2 -4 -7 -5 -10 -2 -3 -5 -8 -6
-10 -3 -5 -3 -5 -6 -5 -3 0 -4 1 -5 5 -1 2 -2 5 -4 7 -1 2 -4 7 -6 11 -2 4 -5
9 -6 11 -3 4 -3 6 -1 9 1 0 5 1 12 1 6 -1 16 -1 22 -1z m92 -8 c3 -1 4 -2 10
-15 1 -2 3 -5 3 -5 1 -1 3 -3 4 -6 1 -3 3 -5 3 -5 1 0 2 -2 3 -5 1 -3 3 -6 4
-7 1 -1 2 -2 2 -3 0 -1 1 -3 2 -3 3 -2 3 -7 2 -9 -1 -1 -59 -2 -69 -1 -2 0 -1
8 1 11 3 3 9 11 11 15 1 2 2 4 2 4 1 0 2 2 3 4 1 3 3 6 4 7 5 6 8 12 9 15 1 4
1 4 6 3z m-203 -1 c0 -1 1 -2 1 -3 0 -1 1 -2 2 -3 2 -2 8 -11 10 -16 1 -1 2
-3 3 -3 1 0 2 -2 3 -5 1 -3 3 -5 3 -5 2 0 11 -15 11 -17 0 -1 1 -2 2 -3 1 -2
1 -2 0 -3 -2 0 -71 0 -71 1 -1 1 3 13 5 15 1 1 2 3 3 5 0 2 2 5 3 6 2 2 3 4 3
5 0 1 1 3 2 4 2 2 3 5 4 7 1 2 2 4 2 4 1 0 4 5 5 10 1 2 7 3 9 1z m143 -67 c1
-1 -1 -5 -5 -10 0 0 -1 -2 -2 -4 -1 -1 -3 -3 -4 -4 0 -1 -2 -3 -3 -5 -1 -3 -3
-6 -4 -7 -4 -5 -8 -10 -10 -14 -1 -1 -4 -6 -6 -10 -3 -3 -5 -7 -5 -8 -1 -3 -6
-2 -8 0 -2 2 -5 6 -8 12 -1 1 -2 4 -4 5 -1 1 -2 4 -3 6 -1 1 -3 3 -4 4 -1 1
-2 3 -2 4 0 0 -1 2 -2 3 -1 1 -3 3 -4 6 -1 2 -3 4 -4 5 -1 1 -2 3 -2 4 0 0 -1
1 -2 2 -2 3 -5 9 -5 10 1 2 6 2 43 2 30 0 43 0 44 -1z"/>
    <path d="M1308 1592 c-2 0 -10 -1 -16 -2 -7 0 -15 -1 -19 -1 -10 0 -12 -1 -12
-3 0 -3 2 -4 9 -6 1 0 4 -1 6 -2 2 -1 7 -3 10 -3 3 -1 9 -2 12 -4 8 -3 10 -5
13 -14 4 -15 17 -27 30 -30 8 -1 21 0 24 2 5 3 14 8 16 8 1 0 5 -1 9 -2 9 -3
26 -4 28 -2 3 2 2 5 -3 6 -2 1 -4 2 -5 3 -1 1 -3 2 -5 3 -2 1 -6 4 -9 8 -14
14 -22 22 -25 25 -7 5 -17 9 -29 12 -11 3 -19 3 -34 2z"/>
    <path d="M1507 1507 c-2 -1 -1 -4 0 -5 1 0 2 -1 3 -2 0 -2 1 -4 3 -5 1 -2 2
-5 3 -6 1 -6 6 -6 10 -1 2 3 3 7 2 11 -2 3 -19 11 -21 8z"/>
    <path d="M1585 1231 c-20 -1 -32 -2 -41 -5 -4 -1 -10 -2 -14 -3 -4 0 -8 -1
-10 -2 -2 -1 -7 -3 -10 -3 -3 -1 -7 -2 -9 -3 -2 -1 -6 -2 -9 -3 -2 -1 -6 -2
-8 -3 -1 -1 -4 -2 -6 -3 -3 -1 -6 -2 -9 -4 -8 -5 -10 -6 -15 -8 -2 -1 -6 -4
-8 -5 -3 -2 -8 -5 -12 -8 -13 -8 -14 -9 -14 -10 0 0 -1 -1 -2 -1 -2 -1 -16
-15 -16 -16 0 -1 9 -10 10 -10 1 0 45 -44 45 -45 0 -1 2 -2 4 -3 l5 -2 4 2 c2
2 4 3 4 4 0 0 2 2 4 3 11 7 14 9 18 11 2 1 4 3 5 3 1 1 3 2 5 3 2 1 5 2 8 4 2
1 5 2 5 2 1 0 5 1 8 3 3 2 7 3 10 4 2 0 5 1 7 2 4 2 21 5 40 7 16 2 43 1 63
-3 10 -2 19 -4 21 -4 1 -1 4 -2 7 -3 2 0 5 -1 7 -3 2 -1 6 -2 9 -3 2 -1 5 -2
6 -3 1 0 4 -2 7 -3 8 -4 12 -7 14 -8 1 -1 3 -3 6 -4 3 -1 5 -2 11 -9 2 -2 4
-3 5 -3 2 0 26 -24 26 -26 0 -1 1 -3 3 -5 5 -5 9 -9 10 -11 0 -1 1 -3 2 -4 2
-2 4 -6 7 -14 1 -2 3 -6 5 -8 1 -2 2 -7 3 -11 1 -3 2 -8 3 -10 1 -2 2 -7 3
-11 1 -9 7 -25 9 -29 2 -2 5 -6 9 -10 5 -5 7 -6 14 -8 9 -4 21 -5 26 -3 13 4
15 5 21 11 4 4 8 9 9 11 3 5 6 18 6 26 0 8 -3 32 -5 35 0 2 -2 6 -3 10 0 4 -2
9 -3 11 -1 2 -2 5 -2 7 -1 2 -2 6 -4 10 -2 3 -4 7 -5 9 0 2 -3 7 -5 11 -2 3
-5 8 -6 10 -1 3 -7 12 -9 13 0 0 -4 5 -8 12 -3 4 -12 14 -20 22 -5 4 -9 8 -9
9 -4 4 -24 20 -27 22 -1 1 -4 2 -5 3 -5 4 -13 9 -14 9 0 0 -2 1 -4 3 -3 2 -5
3 -6 3 -1 0 -3 1 -4 1 -1 1 -5 3 -7 4 -2 2 -6 4 -8 5 -2 1 -5 2 -6 3 -2 0 -5
1 -6 2 -2 1 -5 2 -8 3 -3 0 -7 2 -11 3 -3 2 -7 3 -9 4 -3 0 -7 1 -9 3 -3 1 -9
2 -13 3 -4 1 -9 2 -11 2 -9 4 -56 6 -84 5z"/>
    <path d="M1582 793 c-1 -2 -2 -5 -1 -17 0 -9 0 -20 -1 -30 -2 -21 -4 -36 -3
-39 0 -4 2 -6 6 -6 2 0 6 -1 9 -2 3 -1 9 -3 14 -4 5 -1 10 -3 11 -4 2 0 6 -2
9 -2 4 -1 9 -2 11 -3 2 -1 6 -2 9 -3 4 -1 9 -2 11 -4 3 -1 6 -2 8 -2 1 0 3 -1
4 -2 2 -1 6 -3 10 -4 3 -1 7 -3 8 -3 1 -1 3 -2 6 -3 2 -1 5 -2 6 -3 1 -1 3 -2
6 -3 2 -1 5 -2 7 -3 7 -5 14 -9 15 -9 0 0 3 -2 5 -3 3 -2 5 -4 5 -4 2 0 29
-24 29 -26 0 -1 2 -3 5 -6 3 -3 6 -7 7 -10 1 -2 2 -4 3 -5 1 -1 2 -2 2 -2 0
-1 1 -5 3 -8 8 -16 9 -19 10 -27 1 -5 2 -12 3 -17 2 -6 2 -12 2 -24 0 -15 -1
-31 -3 -33 0 -1 -1 -5 -2 -11 0 -6 -2 -12 -3 -15 -2 -3 -3 -6 -3 -7 0 -1 -1
-3 -2 -5 -2 -3 -3 -6 -4 -8 -1 -2 -2 -6 -4 -8 -2 -2 -3 -4 -3 -4 0 -1 -8 -13
-9 -13 -1 0 -2 -1 -2 -3 -1 -3 -3 -5 -7 -8 -1 -2 -4 -4 -6 -7 -3 -2 -5 -5 -6
-6 -1 0 -3 -2 -5 -4 -2 -2 -4 -3 -4 -3 -1 0 -3 -1 -4 -3 -1 -2 -3 -3 -3 -3 -1
0 -3 -1 -5 -3 -2 -2 -4 -3 -5 -3 0 0 -2 -1 -4 -2 -1 -2 -4 -3 -6 -4 -3 -1 -5
-2 -6 -3 -2 -1 -5 -3 -7 -4 -2 -1 -5 -2 -6 -3 -1 0 -4 -2 -8 -2 -3 -1 -7 -3
-9 -4 -3 -1 -7 -2 -11 -3 -4 -1 -8 -2 -11 -3 -5 -2 -37 -4 -55 -4 -22 1 -39 3
-43 5 -2 0 -7 2 -11 2 -5 1 -10 3 -12 3 -1 1 -6 3 -9 3 -4 1 -9 3 -10 4 -2 1
-5 2 -7 2 -2 1 -4 2 -6 3 -1 2 -4 3 -6 4 -3 1 -5 2 -6 3 -2 1 -4 2 -7 3 -2 1
-4 2 -5 3 0 0 -2 2 -3 3 -2 0 -4 2 -5 4 -2 1 -4 2 -4 2 -1 0 -3 1 -5 3 -2 2
-6 5 -8 7 -5 4 -15 14 -20 21 -2 3 -3 3 -6 2 -2 -1 -8 -5 -14 -11 -15 -14 -23
-21 -25 -22 -1 -1 -4 -3 -6 -5 -3 -3 -7 -6 -9 -7 -2 -1 -5 -3 -6 -4 -1 -1 -3
-2 -5 -3 -2 -1 -3 -3 -4 -5 0 -4 0 -4 10 -14 6 -6 14 -14 19 -18 5 -4 9 -8 10
-8 0 -1 3 -3 5 -5 3 -2 7 -5 8 -6 2 -2 5 -4 8 -5 2 -1 6 -4 9 -6 3 -1 7 -4 10
-5 2 -1 4 -2 5 -3 1 -1 3 -2 5 -3 2 -1 7 -3 11 -5 4 -2 9 -4 12 -5 6 -3 18 -8
24 -9 2 -1 7 -2 10 -3 3 -1 8 -2 11 -3 3 0 9 -1 13 -3 4 -1 12 -3 19 -3 6 -1
17 -3 25 -4 10 -1 18 -1 42 -1 16 1 32 1 34 2 2 0 10 2 18 2 8 1 14 3 17 4 3
1 8 2 12 3 3 1 9 2 12 4 3 1 7 2 8 2 2 0 5 1 8 3 2 1 6 3 8 3 3 1 6 2 7 3 2 1
4 3 6 3 2 1 5 2 6 3 2 1 5 3 7 4 3 0 5 2 6 2 0 1 2 3 5 4 2 1 6 4 9 5 2 2 6 4
8 6 2 1 4 2 6 4 1 1 3 2 4 2 3 1 21 17 31 26 8 9 23 26 28 33 4 7 8 13 9 14 1
1 2 2 2 3 0 1 1 3 3 5 1 2 2 4 2 5 0 0 3 6 6 13 4 7 7 14 7 17 1 2 2 6 3 9 9
22 15 67 13 92 -1 17 -4 45 -6 49 0 3 -2 8 -3 13 -3 11 -7 26 -10 31 -1 2 -3
5 -3 7 -6 11 -14 25 -18 31 -3 3 -7 9 -8 11 -2 2 -6 7 -9 10 -2 3 -6 7 -8 9
-5 6 -24 23 -29 27 -2 1 -6 4 -8 6 -2 2 -5 3 -6 3 0 0 -2 1 -4 2 -1 2 -4 3 -6
4 -5 3 -11 6 -15 9 -1 1 -4 2 -6 3 -1 0 -5 1 -7 3 -3 2 -7 3 -8 3 -2 1 -5 2
-6 3 -3 2 -11 5 -23 10 -4 1 -8 2 -8 3 -1 0 -4 2 -7 3 -4 0 -8 2 -9 3 -2 1 -6
2 -9 3 -4 1 -8 2 -10 3 -2 1 -6 2 -8 2 -2 1 -7 2 -11 3 -4 2 -9 3 -11 3 -3 1
-7 2 -10 4 -3 1 -8 2 -10 2 -2 1 -11 3 -18 5 -15 3 -19 4 -21 2z"/>
   </g>
  </g>
</svg>
